<svg xmlns="http://www.w3.org/2000/svg" fill="none" viewBox="0 0 128 128">
    <path
        d="M0 58.7451C2.41497 58.6972 4.1296 58.2655 5.14389 57.4503C6.20647 56.635 6.73777 55.4121 6.73777 53.7815C6.73777 52.6305 6.49627 50.3286 6.01328 46.8757C5.77178 45.389 5.55443 43.8544 5.36123 42.2718C5.16804 40.6412 5.07144 39.2025 5.07144 37.9556C5.07144 33.5435 6.42382 30.1146 9.12859 27.6687C11.8817 25.2229 15.5766 24 20.2133 24H25.5745V35.4378H22.9664C21.4208 35.4378 20.3099 35.7735 19.6337 36.4449C18.9575 37.1163 18.6194 38.1234 18.6194 39.4662C18.6194 40.3774 18.8126 42.5115 19.199 45.8686C19.6337 50.1847 19.8511 52.9902 19.8511 54.2851C19.8511 57.0186 19.199 59.2726 17.8949 61.0471C16.6391 62.8215 14.7072 63.9485 12.099 64.4281V64.5719C14.7072 65.0515 16.6391 66.1785 17.8949 67.9529C19.199 69.7274 19.8511 71.9813 19.8511 74.7149C19.8511 76.0098 19.6337 78.8153 19.199 83.1314C18.8126 86.4885 18.6194 88.6465 18.6194 89.6057C18.6194 90.9005 18.9575 91.8837 19.6337 92.5551C20.3099 93.2265 21.4208 93.5622 22.9664 93.5622H25.5745V105H20.2133C15.5766 105 11.8817 103.777 9.12859 101.331C6.42382 98.8854 5.07144 95.4565 5.07144 91.0444C5.07144 89.7975 5.16804 88.3828 5.36123 86.8002C5.55443 85.1696 5.77178 83.611 6.01328 82.1243C6.49627 78.6714 6.73777 76.3934 6.73777 75.2904C6.73777 72.0293 4.49184 70.3268 0 70.1829V58.7451Z" />
    <path
        d="M93.8352 38.3872V89.1021H79.6351V61.119L69.9994 89.1021H58.1178L48.4096 60.9032V89.1021H34.2096V38.3872H51.38L64.2035 71.3339L76.7372 38.3872H93.8352Z" />
    <path
        d="M128 70.1829C123.508 70.3268 121.262 72.0293 121.262 75.2904C121.262 76.3934 121.504 78.6714 121.987 82.1243C122.228 83.611 122.446 85.1696 122.639 86.8002C122.832 88.3828 122.929 89.7975 122.929 91.0444C122.929 95.4565 121.552 98.8854 118.799 101.331C116.094 103.777 112.423 105 107.787 105H102.425V93.5622H105.034C106.579 93.5622 107.69 93.2265 108.366 92.5551C109.042 91.8837 109.381 90.9005 109.381 89.6057C109.381 88.6465 109.187 86.4885 108.801 83.1314C108.366 78.8153 108.149 76.0098 108.149 74.7149C108.149 71.9813 108.777 69.7274 110.033 67.9529C111.337 66.1785 113.293 65.0515 115.901 64.5719V64.4281C113.293 63.9485 111.337 62.8215 110.033 61.0471C108.777 59.2726 108.149 57.0186 108.149 54.2851C108.149 52.9902 108.366 50.1847 108.801 45.8686C109.187 42.5115 109.381 40.3774 109.381 39.4662C109.381 38.1234 109.042 37.1163 108.366 36.4449C107.69 35.7735 106.579 35.4378 105.034 35.4378H102.425V24H107.787C112.423 24 116.094 25.2229 118.799 27.6687C121.552 30.1146 122.929 33.5435 122.929 37.9556C122.929 39.2025 122.832 40.6412 122.639 42.2718C122.446 43.8544 122.228 45.389 121.987 46.8757C121.504 50.3286 121.262 52.6305 121.262 53.7815C121.262 55.4121 121.769 56.635 122.784 57.4503C123.846 58.2655 125.585 58.6972 128 58.7451V70.1829Z" />
    <style>
        path {
            fill: #000;
        }

        @media (prefers-color-scheme: dark) {
            path {
                fill: #FFF;
            }
        }
    </style>
</svg>